# xmcd
#
# Track frame offsets:
#	150
#	24099
#	46761
#	57408
#	75271
#	90001
#	105240
#	121089
#	134162
#	151625
#	175637
#	196625
#
# Disc length: 2780 seconds
#
# Revision: 0
# Processed by: cddbd v1.5.2PL0 Copyright (c) Steve Scherf et al.
# Submitted via: EasyCDDAExtractor 16.0.8.1
#
DISCID=720ada0c
DTITLE=Franz Prazak and The Bandits - Best Bandits
DYEAR=2012
DGENRE=Country
TTITLE0=I Shot The Sheriff (Eric Clapton)
TTITLE1=Far Far Away (Slade)
TTITLE2=I Won't Back Down (Johnny Cash)
TTITLE3=Quality Shoe (Mark Knopfler)
TTITLE4=Too Far Gone (Neil Young)
TTITLE5=Creeping In (Nora Jones)
TTITLE6=Wildflowers (Tom Petty)
TTITLE7=Daddy's Gone To Knoxville (Mark Knopfler)
TTITLE8=Help Me Make It ToThe Night (Kris Kristofferson)
TTITLE9=One (U2)
TTITLE10=Befor You Accuse Me (Eric Clapton)
TTITLE11=Have You Ever Seen The Rain (CCR)
EXTD=
EXTT0=
EXTT1=
EXTT2=
EXTT3=
EXTT4=
EXTT5=
EXTT6=
EXTT7=
EXTT8=
EXTT9=
EXTT10=
EXTT11=
PLAYORDER=
